<?xml version="1.0" encoding="iso-8859-1"?>
<!-- Uploaded to: SVG Repo, www.svgrepo.com, Generator: SVG Repo Mixer Tools -->
<svg version="1.1" id="Layer_1" xmlns="http://www.w3.org/2000/svg" xmlns:xlink="http://www.w3.org/1999/xlink" 
	 viewBox="0 0 512 512" xml:space="preserve">
<polygon style="fill:#0079CE;" points="512,0 256,0 245.543,272.911 256,512 512,512 "/>
<rect style="fill:#288FD9;" width="256" height="512"/>
<g>
	<rect x="271.673" y="249.125" style="fill:#F7C02D;" width="87.249" height="47.56"/>
	<rect x="271.673" y="328.035" style="fill:#F7C02D;" width="87.249" height="47.56"/>
	<rect x="271.673" y="170.224" style="fill:#F7C02D;" width="87.249" height="47.56"/>
	<rect x="390.269" y="170.224" style="fill:#F7C02D;" width="87.249" height="47.56"/>
	<polygon style="fill:#F7C02D;" points="477.518,328.033 390.269,328.033 390.269,375.593 390.269,406.94 390.269,454.498 
		477.518,454.498 	"/>
	<rect x="271.673" y="406.936" style="fill:#F7C02D;" width="87.249" height="47.559"/>
	<rect x="390.269" y="249.125" style="fill:#F7C02D;" width="87.249" height="47.56"/>
</g>
<g>
	<rect x="153.078" y="249.125" style="fill:#FBE27B;" width="87.249" height="47.56"/>
	<rect x="34.482" y="249.125" style="fill:#FBE27B;" width="87.249" height="47.56"/>
	<rect x="34.482" y="328.035" style="fill:#FBE27B;" width="87.249" height="47.56"/>
	<rect x="34.482" y="406.936" style="fill:#FBE27B;" width="87.249" height="47.559"/>
	<rect x="153.078" y="406.936" style="fill:#FBE27B;" width="87.249" height="47.559"/>
	<rect x="34.482" y="170.224" style="fill:#FBE27B;" width="87.249" height="47.56"/>
	<rect x="153.078" y="328.035" style="fill:#FBE27B;" width="87.249" height="47.56"/>
	<rect x="153.078" y="170.224" style="fill:#FBE27B;" width="87.249" height="47.56"/>
</g>
<polygon style="fill:#F7C02D;" points="477.518,57.502 256,57.502 235.085,98.188 256,138.874 477.518,138.874 "/>
<rect x="34.482" y="57.501" style="fill:#FBE27B;" width="221.518" height="81.372"/>
</svg>